<svg width="52" height="36" viewBox="0 0 52 36" fill="none" xmlns="http://www.w3.org/2000/svg">
<path d="M50.9286 5.63314C50.3294 3.43041 48.573 1.69402 46.3456 1.10089C42.2764 0 25.9994 0 25.9994 0C25.9994 0 9.72304 0 5.65387 1.05916C3.46932 1.65166 1.67007 3.43072 1.07085 5.63314C0 9.65636 0 18 0 18C0 18 0 26.3857 1.07085 30.3669C1.67071 32.5693 3.42647 34.3057 5.65419 34.8988C9.76589 36 26 36 26 36C26 36 42.2764 36 46.3456 34.9408C48.5733 34.348 50.3294 32.6116 50.9292 30.4092C51.9998 26.3857 51.9998 18.0424 51.9998 18.0424C51.9998 18.0424 52.0426 9.65636 50.9286 5.63314V5.63314ZM20.8172 25.7081V10.2919L34.3523 18L20.8172 25.7081Z" fill="white"/>
</svg>
