<svg width="179" height="89" viewBox="0 0 179 89" fill="none" xmlns="http://www.w3.org/2000/svg">
<path d="M27.9254 64.7216V67.9672C26.7412 66.5949 24.7456 65.5829 21.9386 64.9312C19.6896 64.427 17.3959 64.1814 15.0974 64.1985C11.435 64.1985 8.66658 64.5944 6.79197 65.3862C4.91718 66.1786 3.97979 67.3318 3.97979 68.8459C3.97979 70.9424 5.89794 72.3749 9.73424 73.1434L21.1816 74.7065C25.6335 75.5438 28.4077 77.0789 29.5041 79.3119C29.6081 79.5612 29.6959 79.8178 29.767 80.0798C29.8767 80.4523 29.9322 80.8404 29.9313 81.2306C29.9313 83.2777 28.9775 84.9291 27.0699 86.1847C25.557 87.1617 23.4848 87.8594 20.8534 88.2778C18.8922 88.5743 16.914 88.7259 14.933 88.7317C12.3542 88.7476 9.77889 88.5256 7.2363 88.0682C5.94183 87.8126 4.74122 87.5161 3.63448 87.1787C2.39922 86.793 1.18575 86.3328 0 85.8002V82.8687C2.37298 84.3776 4.9 85.5953 7.53235 86.4982C8.80094 86.8795 10.092 87.171 11.397 87.3707C12.7641 87.5813 14.1437 87.6863 15.5251 87.6848C17.6967 87.737 19.8651 87.4787 21.9717 86.9169C24.8005 86.0791 26.2149 84.6716 26.2149 82.6943C26.2149 80.787 24.0111 79.4259 19.6034 78.611L7.30215 76.552C2.87214 75.3654 0.657408 73.3297 0.657944 70.4448C0.657944 68.3978 1.53502 66.7926 3.28918 65.6293C4.69232 64.6989 6.6219 64.0241 9.0779 63.605C10.9417 63.3337 12.8216 63.2054 14.7028 63.221C16.879 63.2254 19.0533 63.3595 21.2153 63.6225C23.452 63.8901 25.6887 64.2564 27.9254 64.7216Z" fill="white"/>
<path d="M57.1146 64.2836C55.1413 63.5856 51.593 63.1416 48.7203 63.1416C46.7684 63.1416 44.042 63.1607 40.4289 63.3814C38.3433 63.5089 36.7628 63.654 32.9551 63.918V88.3466H37.0339V76.2961C39.2458 76.6597 41.4747 76.8963 43.7107 77.0048C46.4856 77.144 49.2665 77.0412 52.0254 76.6975C54.4316 76.3939 56.7644 75.6225 58.9071 74.4221C60.9018 73.2128 61.8996 71.5726 61.9003 69.5015C61.9003 67.0358 60.1189 65.3305 57.1146 64.2836ZM54.6977 74.088C53.0531 74.9486 51.2077 75.3859 48.455 75.457C45.6904 75.5285 44.5565 75.4955 41.8722 74.9077C40.1792 74.5218 38.549 73.8736 37.0339 72.984V67.3648C37.8878 66.8547 38.7742 66.4084 39.6865 66.0291C42.2698 64.86 45.0518 64.2659 47.8602 64.2836C49.8335 64.2836 52.6578 64.6026 54.2365 65.2535C56.3196 66.1612 57.8214 67.4777 57.8214 69.2924C57.8214 71.2003 56.8027 73.0406 54.6977 74.088V74.088Z" fill="white"/>
<path d="M70.9794 63.1416L85.2871 88.3472L81.0219 88.3398L75.2841 78.4356H62.9502L56.8237 88.3387L55.6855 88.3472L70.9794 63.1416ZM63.773 77.1445H74.5892L69.3021 68.0327L63.773 77.1445Z" fill="white"/>
<path d="M109.861 63.4211L102.078 76.2006L98.4372 70.2066L94.1786 76.2857L86.3477 63.4211L88.5914 63.4199L95.0712 73.8648L98.0341 69.5433L94.3149 63.4211L96.5197 63.4237L102.828 73.6407L109.13 63.4223L109.861 63.4211Z" fill="white"/>
<path d="M120.937 68.4859H110.999C110.446 69.2843 110.154 70.2526 110.167 71.2435C110.162 71.8974 110.303 72.5433 110.577 73.1289C110.852 73.7145 111.252 74.2232 111.747 74.6139C112.722 75.4319 113.935 75.8651 115.178 75.8396C116.032 75.8504 116.874 75.6302 117.625 75.1998C118.401 74.7383 119.092 74.1306 119.663 73.4064V74.9205C118.992 75.3524 118.266 75.6773 117.506 75.8848C116.713 76.1069 115.896 76.2189 115.076 76.218C113.544 76.2457 112.034 75.8273 110.71 75.0082C109.204 74.0574 108.451 72.7635 108.451 71.1264C108.458 70.4158 108.652 69.7214 109.012 69.1219C109.365 68.5258 109.82 68.0053 110.354 67.5873C111.038 67.0441 111.818 66.6513 112.647 66.4317C113.551 66.1776 114.482 66.0501 115.416 66.0524C116.446 66.0258 117.472 66.2044 118.44 66.579C119.413 66.9776 120.272 67.6341 120.937 68.4859ZM115.331 66.4129C114.976 66.4104 114.62 66.4409 114.27 66.5042C113.912 66.5759 113.562 66.6857 113.225 66.8322C112.547 67.1023 111.933 67.5251 111.424 68.0713H118.984C118.514 67.544 117.955 67.1144 117.336 66.8046C116.701 66.5272 116.018 66.3938 115.331 66.4129Z" fill="white"/>
<path d="M123.807 63.4209V76.0379H122.244V63.4209H123.807Z" fill="white"/>
<path d="M127.358 63.4209V76.0379H125.795V63.4209H127.358Z" fill="white"/>
<path d="M140.762 76.0383H139.233L139.267 72.3795V71.1899C139.299 70.416 139.207 69.6419 138.995 68.9008C138.683 68.1177 138.125 67.474 137.415 67.0802C136.706 66.6547 135.902 66.437 135.088 66.4494C134.29 66.4415 133.504 66.6592 132.811 67.0802C132.108 67.461 131.542 68.0749 131.197 68.8286C130.953 69.6246 130.849 70.4618 130.892 71.2979V76.0383H129.363V72.0911C129.326 71.107 129.429 70.1226 129.668 69.171C129.977 68.2346 130.6 67.4518 131.418 66.9722C131.94 66.6379 132.512 66.4002 133.109 66.2693C133.759 66.1225 134.423 66.05 135.088 66.0528C136.787 66.0528 138.117 66.4013 139.08 67.0984C140.201 67.9157 140.762 69.1773 140.762 70.8833V76.0383L140.762 76.0383Z" fill="white"/>
<path d="M154.332 68.4859H144.394C143.841 69.2843 143.548 70.2526 143.561 71.2435C143.557 71.8974 143.697 72.5433 143.972 73.1289C144.246 73.7145 144.647 74.2232 145.141 74.6139C146.117 75.4319 147.33 75.8651 148.573 75.8396C149.426 75.8504 150.268 75.6302 151.019 75.1998C151.796 74.7383 152.486 74.1306 153.058 73.4064V74.9205C152.387 75.3524 151.66 75.6773 150.9 75.8848C150.107 76.1069 149.291 76.2189 148.471 76.218C146.939 76.2457 145.429 75.8273 144.105 75.0082C142.599 74.0574 141.846 72.7635 141.846 71.1264C141.852 70.4158 142.047 69.7214 142.406 69.1219C142.759 68.5258 143.214 68.0053 143.748 67.5873C144.433 67.0441 145.213 66.6513 146.042 66.4317C146.945 66.1776 147.876 66.0501 148.811 66.0524C149.841 66.0258 150.867 66.2044 151.835 66.579C152.807 66.9776 153.667 67.6342 154.332 68.4859ZM148.726 66.4129C148.37 66.4104 148.015 66.4409 147.664 66.5042C147.306 66.5759 146.956 66.6857 146.619 66.8322C145.942 67.1023 145.327 67.5251 144.819 68.0713H152.378C151.908 67.544 151.349 67.1144 150.73 66.8046C150.095 66.5272 149.412 66.3938 148.726 66.4129H148.726Z" fill="white"/>
<path d="M165.686 66.6469V67.8364C164.972 67.2856 164.145 66.9212 163.274 66.773C161.515 66.4487 159.718 66.4365 157.956 66.7369C156.699 66.9892 156.07 67.4759 156.071 68.197C156.071 69.0501 156.977 69.6268 158.789 69.9272L163.868 70.6662C165.691 71.123 166.603 71.9521 166.603 73.1536C166.603 74.3312 165.884 75.1904 164.446 75.7311C163.297 76.1082 162.098 76.2847 160.895 76.2536C160.261 76.2536 159.7 76.2356 159.213 76.1996C158.734 76.1645 158.258 76.0983 157.786 76.0013C156.675 75.7664 155.58 75.4533 154.508 75.064V73.9645C155.386 74.729 156.422 75.2613 157.532 75.5176C158.653 75.7303 159.791 75.8259 160.929 75.803C161.772 75.8193 162.612 75.7103 163.427 75.4791C164.502 75.1553 165.04 74.5915 165.04 73.7879C165.04 72.9847 164.151 72.421 162.373 72.097C160.969 71.881 160.148 71.7551 159.91 71.7191C159.196 71.6114 158.37 71.4734 157.43 71.3052C155.64 70.8378 154.745 70.0163 154.746 68.8406C154.746 67.761 155.385 66.9814 156.665 66.5016C157.697 66.1541 158.776 65.99 159.859 66.0158C160.818 66.0157 161.776 66.0699 162.73 66.1781C163.194 66.2262 163.678 66.2863 164.182 66.3585C164.686 66.4304 165.187 66.5265 165.686 66.6469Z" fill="white"/>
<path d="M178.083 66.6469V67.8364C177.369 67.2856 176.542 66.9213 175.67 66.773C173.912 66.4487 172.115 66.4365 170.353 66.7369C169.096 66.9892 168.467 67.4759 168.468 68.197C168.468 69.0501 169.374 69.6268 171.186 69.9273L176.265 70.6662C178.088 71.123 179 71.9521 179 73.1537C179 74.3312 178.281 75.1904 176.842 75.7311C175.693 76.1082 174.494 76.2847 173.292 76.2536C172.658 76.2536 172.097 76.2356 171.61 76.1996C171.131 76.1646 170.655 76.0983 170.183 76.0013C169.072 75.7664 167.976 75.4533 166.904 75.064V73.9645C167.782 74.7289 168.818 75.2612 169.928 75.5176C171.049 75.7303 172.187 75.8259 173.326 75.803C174.168 75.8193 175.009 75.7103 175.823 75.4791C176.899 75.1553 177.437 74.5915 177.437 73.7879C177.437 72.9847 176.548 72.421 174.77 72.097C173.366 71.881 172.544 71.7551 172.307 71.7191C171.593 71.6114 170.766 71.4735 169.826 71.3052C168.037 70.8378 167.142 70.0163 167.142 68.8406C167.142 67.761 167.782 66.9814 169.062 66.5016C170.094 66.1541 171.173 65.9899 172.256 66.0158C173.215 66.0157 174.173 66.0699 175.127 66.1781C175.591 66.2262 176.075 66.2863 176.579 66.3585C177.083 66.4304 177.584 66.5265 178.083 66.6469Z" fill="white"/>
<path d="M86.3359 78.4492H96.6217V79.0436H92.2859V88.3574H90.6984V79.0012H86.3359V78.4492Z" fill="white"/>
<path d="M104.88 82.4272H97.0754C96.641 83.0543 96.4114 83.8147 96.4216 84.5928C96.418 85.1064 96.5284 85.6136 96.7439 86.0735C96.9595 86.5333 97.2741 86.9328 97.6623 87.2396C98.4284 87.882 99.3809 88.2222 100.357 88.2022C101.027 88.2106 101.688 88.0377 102.278 87.6997C102.888 87.3373 103.43 86.86 103.879 86.2914V87.4804C103.352 87.8196 102.781 88.0747 102.185 88.2376C101.562 88.4121 100.921 88.5 100.277 88.4994C99.0738 88.5211 97.888 88.1925 96.8484 87.5493C95.6655 86.8026 95.0741 85.7865 95.0742 84.5009C95.0795 83.9428 95.232 83.3975 95.5144 82.9267C95.7916 82.4586 96.1491 82.0498 96.5683 81.7215C97.1059 81.295 97.7182 80.9865 98.3695 80.8141C99.0789 80.6145 99.8099 80.5144 100.544 80.5162C101.353 80.4953 102.158 80.6356 102.919 80.9297C103.682 81.2428 104.357 81.7584 104.88 82.4272ZM100.477 80.7993C100.198 80.7974 99.9189 80.8213 99.6434 80.871C99.3624 80.9273 99.0875 81.0136 98.8229 81.1286C98.2908 81.3407 97.8084 81.6727 97.4089 82.1017H103.346C102.976 81.6876 102.537 81.3502 102.051 81.1069C101.553 80.8891 101.016 80.7843 100.477 80.7993Z" fill="white"/>
<path d="M113.937 81.4364V82.512C113.282 81.7056 112.397 81.1489 111.415 80.9268C111.082 80.8499 110.742 80.8119 110.401 80.8134C109.419 80.7952 108.462 81.1519 107.707 81.8186C107.322 82.1391 107.011 82.5487 106.799 83.016C106.586 83.4833 106.477 83.996 106.479 84.5149C106.482 85.0338 106.596 85.5452 106.814 86.0101C107.031 86.475 107.345 86.8811 107.733 87.1973C108.504 87.8536 109.467 88.204 110.455 88.1881C111.105 88.1921 111.747 88.0422 112.336 87.7493C112.941 87.4427 113.481 87.0093 113.923 86.4753V87.5652C113.415 87.8872 112.861 88.1213 112.282 88.2589C111.693 88.4137 111.089 88.4944 110.482 88.4994C109.265 88.5149 108.067 88.1824 107.013 87.5369C105.786 86.7821 105.172 85.7678 105.172 84.4938C105.172 83.2198 105.777 82.2101 106.986 81.4647C107.494 81.1529 108.039 80.9148 108.607 80.757C109.206 80.5932 109.823 80.5123 110.442 80.5163C111.068 80.5125 111.692 80.5862 112.303 80.7358C112.878 80.8791 113.429 81.1154 113.937 81.4364Z" fill="white"/>
<path d="M115.352 78.4492H116.579V81.634C116.991 81.2152 117.501 80.9197 118.056 80.7777C118.65 80.6053 119.263 80.5172 119.88 80.5157C120.301 80.5101 120.722 80.5481 121.136 80.6291C121.542 80.6847 121.938 80.804 122.312 80.9829C122.808 81.2171 123.265 81.5376 123.662 81.9312C123.865 82.117 124.032 82.3443 124.151 82.5996C124.27 82.8549 124.34 83.1329 124.357 83.4174V88.3574H123.169L123.183 85.6166V84.769C123.185 84.3914 123.167 84.014 123.129 83.6385C123.103 83.3635 123.045 83.0929 122.955 82.8334C122.695 82.1871 122.231 81.6574 121.642 81.3359C121.37 81.1799 121.079 81.0635 120.778 80.9899C120.469 80.9107 120.152 80.8703 119.834 80.8696C119.176 80.8614 118.528 81.0421 117.958 81.3926C117.46 81.6689 117.06 82.1103 116.82 82.6498C116.633 83.2165 116.552 83.8162 116.579 84.4159V88.3575H115.352L115.352 78.4492Z" fill="white"/>
<path d="M134.881 88.3579H133.681L133.707 85.4846V84.5504C133.733 83.9427 133.661 83.3348 133.494 82.7527C133.249 82.1378 132.811 81.6323 132.253 81.323C131.696 80.9888 131.065 80.8179 130.425 80.8277C129.799 80.8214 129.182 80.9924 128.638 81.323C128.086 81.622 127.641 82.1041 127.37 82.696C127.178 83.3211 127.097 83.9786 127.13 84.6352V88.3579H125.929V85.2581C125.901 84.4853 125.982 83.7123 126.17 82.9649C126.412 82.2296 126.901 81.6148 127.544 81.2382C127.954 80.9756 128.402 80.789 128.871 80.6862C129.382 80.5709 129.903 80.5139 130.425 80.5162C131.76 80.5162 132.805 80.7899 133.56 81.3372C134.441 81.9791 134.881 82.9699 134.881 84.3096V88.3579L134.881 88.3579Z" fill="white"/>
<path d="M146.422 84.4937C146.422 85.7674 145.809 86.7866 144.582 87.551C143.516 88.1901 142.31 88.5174 141.086 88.4993C139.876 88.5119 138.686 88.1743 137.644 87.5227C136.426 86.7583 135.816 85.7533 135.816 84.5077C135.816 83.2623 136.435 82.2526 137.671 81.4787C138.728 80.8523 139.918 80.5211 141.129 80.5162C142.34 80.5112 143.533 80.8326 144.595 81.4503C145.813 82.1864 146.422 83.2008 146.422 84.4937ZM141.14 88.1454C142.125 88.1557 143.084 87.8115 143.861 87.1688C144.26 86.8664 144.584 86.4668 144.807 86.0038C145.03 85.5407 145.145 85.0277 145.142 84.5077C145.148 83.9776 145.034 83.4537 144.809 82.9805C144.584 82.5074 144.254 82.099 143.848 81.7901C143.041 81.1494 142.054 80.8153 141.046 80.8417C140.078 80.8164 139.131 81.1463 138.365 81.7759C137.98 82.0843 137.669 82.4849 137.458 82.9449C137.247 83.4049 137.142 83.9114 137.151 84.4229C137.144 84.9491 137.253 85.4696 137.468 85.9436C137.684 86.4176 137.999 86.8322 138.391 87.1548C139.169 87.8169 140.142 88.1676 141.14 88.1454Z" fill="white"/>
<path d="M148.96 78.4492V88.3574H147.732V78.4492H148.96Z" fill="white"/>
<path d="M160.471 84.4937C160.471 85.7674 159.858 86.7866 158.63 87.551C157.565 88.1901 156.359 88.5174 155.135 88.4993C153.925 88.512 152.735 88.1743 151.693 87.5227C150.475 86.7583 149.865 85.7533 149.865 84.5077C149.865 83.2623 150.483 82.2526 151.72 81.4787C152.777 80.8523 153.967 80.5211 155.178 80.5162C156.389 80.5112 157.582 80.8326 158.644 81.4503C159.862 82.1864 160.471 83.2008 160.471 84.4937ZM155.189 88.1454C156.174 88.1557 157.133 87.8115 157.91 87.1688C158.308 86.8664 158.633 86.4669 158.856 86.0038C159.079 85.5407 159.194 85.0277 159.191 84.5077C159.197 83.9776 159.083 83.4537 158.858 82.9806C158.633 82.5074 158.303 82.099 157.897 81.7901C157.089 81.1494 156.103 80.8153 155.095 80.8417C154.126 80.8164 153.179 81.1463 152.414 81.7759C152.029 82.0843 151.718 82.4849 151.507 82.9449C151.296 83.4049 151.191 83.9114 151.199 84.4229C151.193 84.9491 151.302 85.4696 151.517 85.9436C151.732 86.4176 152.048 86.8321 152.44 87.1548C153.218 87.817 154.191 88.1677 155.189 88.1454Z" fill="white"/>
<path d="M169.394 86.5956C169.25 86.7241 169.092 86.8334 168.924 86.9212H169.344C168.974 87.3352 168.535 87.6726 168.05 87.9159C167.551 88.1338 167.015 88.2385 166.475 88.2235C166.196 88.2255 165.917 88.2015 165.642 88.1518C165.36 88.0956 165.086 88.0093 164.821 87.8943C164.289 87.6821 163.806 87.3501 163.407 86.9212L163.073 86.5956C162.639 85.9686 162.409 85.2082 162.42 84.43C162.416 83.9165 162.526 83.4092 162.742 82.9494C162.958 82.4895 163.272 82.09 163.66 81.7832C164.426 81.1408 165.379 80.8006 166.355 80.8207C167.025 80.8122 167.687 80.9851 168.276 81.3231C168.886 81.6856 169.429 82.1628 169.877 82.7315V81.5425C169.35 81.2033 168.78 80.9481 168.183 80.7852C167.56 80.6108 166.919 80.5228 166.275 80.5235C165.072 80.5017 163.886 80.8303 162.846 81.4736C161.664 82.2203 161.072 83.2364 161.072 84.522C161.078 85.08 161.23 85.6254 161.512 86.0962C161.79 86.5643 162.147 86.973 162.566 87.3013C163.104 87.7278 163.716 88.0363 164.368 88.2087C165.077 88.4083 165.808 88.5084 166.542 88.5066C167.351 88.5275 168.156 88.3872 168.917 88.0931C169.682 87.7791 169.339 87.2801 169.881 86.5956H169.394Z" fill="white"/>
<path d="M168.787 84.7227V88.145C169.254 87.9549 169.698 87.705 170.108 87.4009V84.7227H168.787Z" fill="white"/>
<path d="M171.584 80.6162L174.992 84.4766L178.552 80.6161L178.999 80.6143L175.099 84.9836V88.3576H173.911V85.0722L170.105 80.6143L171.584 80.6162Z" fill="white"/>
<path d="M92.9043 35.6952L92.8992 35.6978C92.8954 35.6977 92.8923 35.6955 92.8886 35.6955C92.8395 35.6962 92.7912 35.7088 92.7475 35.7326C92.7038 35.7563 92.6659 35.7905 92.6367 35.8324L92.6249 35.8384C91.0005 38.0354 84.5939 45.5231 77.7957 47.1766C68.7021 49.3495 65.4067 44.7473 64.5036 40.1805C62.8954 33.2366 68.6916 27.3706 72.8798 25.0708C67.2867 27.8594 63.5518 32.2768 62.6227 37.3685C60.6194 45.9561 69.8298 55.6922 83.9752 50.2906C90.0943 47.7306 94.7269 44.2487 96.4471 42.1768C96.4471 42.1768 99.3664 38.7907 99.2915 38.096C99.2199 37.4318 94.3849 35.699 92.9043 35.6952Z" fill="white"/>
<path d="M96.305 2.60668C90.118 -3.32417 77.6788 0.688229 75.4822 16.4678C74.7175 23.3992 75.421 29.3763 76.3293 31.9638C76.3293 31.9638 77.7626 36.2935 78.3751 36.5518C78.957 36.797 82.6385 33.1418 83.3738 31.7394C83.3763 31.7348 83.3774 31.7249 83.3795 31.7191C83.411 31.6697 83.429 31.6121 83.4317 31.5526C83.4344 31.4931 83.4217 31.4339 83.3948 31.3815C83.3935 31.3765 83.3931 31.3671 83.3915 31.3633C82.3254 28.7752 79.1551 19.2793 80.9886 12.1606C83.4803 2.63062 88.8603 1.72357 93.0805 3.03681C99.6084 4.81394 101.742 13.0055 101.674 18.0085C102 11.4609 100.096 5.88129 96.305 2.60668Z" fill="white"/>
<path d="M107.336 24.7189C101.945 20.7204 96.6506 18.5458 94.0726 18.1686C94.0726 18.1686 89.7997 17.4565 89.2953 17.9064C88.8105 18.3388 90.1355 23.6251 90.9492 24.9021C90.9565 24.9112 90.9646 24.9196 90.9732 24.9273C91.0128 24.9766 91.065 25.0127 91.1235 25.0313C91.1373 25.0387 91.1521 25.0439 91.1673 25.0468C93.7396 25.2592 103.225 26.7812 108.302 31.9046C115.031 38.7479 113.235 44.2044 110.146 47.5254C105.578 52.7828 97.7676 50.8956 93.6475 48.4613C98.9276 51.8684 104.461 52.7323 108.975 50.7421C116.829 47.7713 119.392 34.2476 107.336 24.7189Z" fill="white"/>
</svg>
